<svg id="Layer_1" data-name="Layer 1" xmlns="http://www.w3.org/2000/svg" viewBox="0 0 1575.52 703.96"><defs><style>.cls-1{fill:#f4c064;}.cls-2{fill:#99774f;}.cls-3{fill:#91f18b;}.cls-4{fill:#ff8355;}.cls-5{fill:#ffe954;}.cls-6{fill:#f4ab53;}.cls-7{fill:#ffee92;}.cls-8{fill:#cea05d;}.cls-9{fill:#f49744;}.cls-10{fill:#333;}</style></defs><title>burger</title><path class="cls-1" d="M730.26,469.26h0A22.25,22.25,0,0,1,743,509.78a77.49,77.49,0,0,1,9.55,37.39,44.33,44.33,0,0,1-8.37,26,38.95,38.95,0,0,1-30.58,63.07h16.69a22.25,22.25,0,0,1,22.26,22.26A44.52,44.52,0,0,1,708,703H351.83a44.53,44.53,0,0,1-44.53-44.52,22.26,22.26,0,0,1,22.27-22.26h16.69a38.94,38.94,0,0,1-30.58-63.07,44.27,44.27,0,0,1-8.38-26,77.6,77.6,0,0,1,9.55-37.39,22.25,22.25,0,0,1,12.72-40.52h0A22.27,22.27,0,0,1,307.3,447H752.52A22.26,22.26,0,0,1,730.26,469.26Z" transform="translate(273.86 0.96)"/><path class="cls-2" d="M752.52,597.26h0a39,39,0,0,1-38.95,39H346.26a39,39,0,0,1-39-39h0a39,39,0,0,1,39-39H713.57A39,39,0,0,1,752.52,597.26Z" transform="translate(273.86 0.96)"/><path class="cls-3" d="M752.52,547.17h0A44.53,44.53,0,0,1,708,591.7h0a44.45,44.45,0,0,1-35.66-17.88,11,11,0,0,0-8.86-4.39h0a11.06,11.06,0,0,0-8.87,4.39A44.42,44.42,0,0,1,619,591.7h0a44.44,44.44,0,0,1-35.66-17.88,11,11,0,0,0-8.87-4.39h0a11,11,0,0,0-8.86,4.39,44.44,44.44,0,0,1-35.66,17.88h0a44.42,44.42,0,0,1-35.65-17.88,11.06,11.06,0,0,0-8.87-4.39h0a11,11,0,0,0-8.86,4.39,44.45,44.45,0,0,1-35.66,17.88h0a44.45,44.45,0,0,1-35.66-17.88,11,11,0,0,0-8.86-4.39h0a11.06,11.06,0,0,0-8.87,4.39,44.42,44.42,0,0,1-35.65,17.88h0a44.53,44.53,0,0,1-44.53-44.53h0a77.92,77.92,0,0,1,77.92-77.91H674.61A77.91,77.91,0,0,1,752.52,547.17Z" transform="translate(273.86 0.96)"/><path class="cls-4" d="M752.52,491.52h0a22.25,22.25,0,0,1-22.26,22.26H329.57a22.26,22.26,0,0,1-22.27-22.26h0a22.27,22.27,0,0,1,22.27-22.26H730.26A22.26,22.26,0,0,1,752.52,491.52Z" transform="translate(273.86 0.96)"/><path class="cls-5" d="M529.91,547.17h0a61.48,61.48,0,0,1-39.36-14.25l-116.46-97H685.74l-116.47,97A61.44,61.44,0,0,1,529.91,547.17Z" transform="translate(273.86 0.96)"/><path class="cls-1" d="M730.26,469.26H329.57A22.27,22.27,0,0,1,307.3,447h0A155.83,155.83,0,0,1,463.13,291.17H596.7A155.82,155.82,0,0,1,752.52,447h0A22.26,22.26,0,0,1,730.26,469.26Z" transform="translate(273.86 0.96)"/><path class="cls-6" d="M496.52,703H351.83a44.53,44.53,0,0,1-44.53-44.52h0a22.26,22.26,0,0,1,22.27-22.26H474.26A22.26,22.26,0,0,0,452,658.48h0A44.52,44.52,0,0,0,496.52,703ZM463.13,291.17A155.83,155.83,0,0,0,307.3,447h0a22.27,22.27,0,0,0,22.27,22.26H474.26A22.26,22.26,0,0,1,452,447h0A155.83,155.83,0,0,1,607.83,291.17Z" transform="translate(273.86 0.96)"/><path class="cls-7" d="M705.22,424.74a8.35,8.35,0,0,1-8.35,8.35H685.74a8.35,8.35,0,0,1,0-16.7h11.13A8.35,8.35,0,0,1,705.22,424.74Zm-52.87-86.26H641.22a8.35,8.35,0,1,0,0,16.69h11.13a8.35,8.35,0,1,0,0-16.69Zm41.74,41.74a8.35,8.35,0,0,0-8.35-8.35H674.61a8.35,8.35,0,0,0,0,16.7h11.13A8.35,8.35,0,0,0,694.09,380.22Zm-64,13.91H619a8.35,8.35,0,0,0,0,16.7h11.13a8.35,8.35,0,0,0,0-16.7Z" transform="translate(273.86 0.96)"/><path class="cls-4" d="M630.09,257.78H529.91V202.13H630.09a11.13,11.13,0,0,1,11.13,11.13v33.39A11.13,11.13,0,0,1,630.09,257.78Z" transform="translate(273.86 0.96)"/><path class="cls-8" d="M538.26,199.35V324.57H521.57V199.35a8.35,8.35,0,1,1,16.69,0Z" transform="translate(273.86 0.96)"/><path class="cls-9" d="M560.52,324.57a8.34,8.34,0,0,1-8.35,8.34H496.52a8.35,8.35,0,1,1,0-16.69h55.65A8.35,8.35,0,0,1,560.52,324.57Z" transform="translate(273.86 0.96)"/><path class="cls-10" d="M-221.68,312.92l-52.18-85.15q29.24-19,59.11-37a88,88,0,0,1,10.94-5.14,53.38,53.38,0,0,1,11.32-2.92,32.52,32.52,0,0,1,11.08.1,23.53,23.53,0,0,1,9.78,4.56,28.12,28.12,0,0,1,7.91,9.77c2.84,5.49,3.86,10.6,3.1,15.32s-3,9.71-6.6,15c6.72-1.56,12.63-1.17,17.72,1.13s9.13,6.43,12.19,12.37a30.25,30.25,0,0,1,3.54,13.15,28.48,28.48,0,0,1-2.1,11.92,40.6,40.6,0,0,1-6.44,10.36,59.31,59.31,0,0,1-8.9,8.71,76.37,76.37,0,0,1-10.14,6.7c-2.08,1.16-5.24,2.86-9.47,5.13s-7.42,4-9.51,5.25c-11,6.37-21.81,13.05-32.54,19.95Q-217,320.07-221.68,312.92Zm0-87.25q1.66,2.9,5.14,8.51t5.14,8.52a1.71,1.71,0,0,0,2.44.49c.55-.33,1.6-1.22,3-2.3s2.6-1.93,3.43-2.57a17.88,17.88,0,0,0,2.78-2.8,10.31,10.31,0,0,0,2-3.47,9.81,9.81,0,0,0,.24-4.08,13.75,13.75,0,0,0-1.74-5.1c-3.65-6.58-11.5-7.45-20-1.72A8,8,0,0,0-222,224,2.25,2.25,0,0,0-221.7,225.67Zm29.27,48.39q2.72,4.77,3.25,4.47l2.11-1.2c1.71-1,3.17-1.87,4.37-2.69a24.66,24.66,0,0,0,3.62-3.1,11,11,0,0,0,2.52-3.74,10.47,10.47,0,0,0,.48-4.47,13.72,13.72,0,0,0-1.79-5.45,14.39,14.39,0,0,0-2-2.8,7.11,7.11,0,0,0-2.36-1.74,20.59,20.59,0,0,0-2.38-.89,6.25,6.25,0,0,0-2.69-.07c-1.05.16-1.92.3-2.59.42a14.38,14.38,0,0,0-2.79.93c-1.19.5-2.05.87-2.56,1.1s-1.4.67-2.65,1.29-2,1-2.33,1.2l1.39,2.45q.34.75,2,5.17a50.64,50.64,0,0,0,3,6.8Z" transform="translate(273.86 0.96)"/><path class="cls-10" d="M-130.72,231.44c-8.24-15.69-16.1-32.54-24.27-48.75l-.4-.79q-.24-.47-1.8-3.21c-1-1.83-1.9-3.4-2.57-4.73q-4-8-3.12-9.73c.24-.12.61-.27,1.11-.47a11.1,11.1,0,0,0,1.1-.47c9.08-5.09,18.4-9.68,27.75-14.24,3.92-1.87,5.88-2.8,9.81-4.64a7.68,7.68,0,0,1,1.76-.29,5,5,0,0,0,1.51-.26q1.61,3.27,5.62,11.22t6.86,13.83q2.86,5.86,5.45,11.62l12.2,26.24c.77,1.66,1.44,3,2,4a26.71,26.71,0,0,0,2.34,3.33,6,6,0,0,0,3.3,2.27,5.94,5.94,0,0,0,3.88-.52,6.14,6.14,0,0,0,3.57-4.53,10,10,0,0,0-.74-6.39l-11.22-24.73q-2.12-4.48-6.36-14.3t-6.86-15.22l-2.2-4.87q-.35-.74-1.17-2.19c-.56-1-1-1.73-1.21-2.27l-1.47-3.24a2.32,2.32,0,0,1,1-2.75c11.91-6.88,28-12.19,42.16-18l.46,1.09,3.23-1.34c4.24,11.51,8.8,22.91,13.5,34.24,2.55,6.14,3.82,9.21,6.36,15.35q1.29,3.09,3.78,9.52t3.79,9.51a44.73,44.73,0,0,1,3.71,16.94,33.19,33.19,0,0,1-2.78,14.13,41.73,41.73,0,0,1-8.09,11.55A64.38,64.38,0,0,1-50,237.69a106.41,106.41,0,0,1-13.58,7.36,112.43,112.43,0,0,1-14,5.4A65.06,65.06,0,0,1-92,253.07,44.92,44.92,0,0,1-106.4,252a34.62,34.62,0,0,1-13.1-6.81A43.22,43.22,0,0,1-130.72,231.44Z" transform="translate(273.86 0.96)"/><path class="cls-10" d="M95.32,179q-1,2-5.84,3.91a124.09,124.09,0,0,1-12.09,3.83c-4.85,1.31-7.44,2-7.76,2.15q-4.71,1.6-6.83,2.19l-6.91,2.41c-1.13,0-2.52-1.19-4.18-3.68a118.42,118.42,0,0,1-6.23-11l-4-7.76q-2.76-6.81-5.52-8.31c-1.85-1-4.52-.86-8,.41l-3.1,1.14,12.48,34a2.2,2.2,0,0,1-.94,1.92,12.78,12.78,0,0,1-3.47,2.12q-2.37,1.08-4.25,1.83t-5,1.84c-2.07.73-3.34,1.19-3.79,1.37-3.95,1.51-5.92,2.27-9.86,3.81-5.56,2.18-10.18,4.67-12.5,5.13a9.2,9.2,0,0,1-2.3-.19q-20.73-51.33-41.47-102.64c-.52-1.28,1.18-2.72,5.11-4.29Q-9,96.51,23.54,85c8.07-3.09,20-4.35,28.34-1.13,7.43,2.87,12.53,8.79,15.39,17.46,3.76,11.41-.72,23.09-9.59,30.8A22.84,22.84,0,0,1,70,135.32a21.1,21.1,0,0,1,4.59,3.84,37.82,37.82,0,0,1,3.72,4.65,51.38,51.38,0,0,1,3.15,5.45q1.62,3.23,2.63,5.62c.67,1.61,1.48,3.51,2.43,5.73s1.7,4,2.26,5.23l2,6.22a13.13,13.13,0,0,0,2.31,2.76,14.21,14.21,0,0,1,2.34,2.61C95.79,178.2,95.69,178.9,95.32,179ZM9.39,123.51c1,2.79,1.81,4.85,2.35,6.17a32.69,32.69,0,0,0,2.74,5,9.79,9.79,0,0,0,3.87,3.88,27.58,27.58,0,0,0,5.5-2.7,21.58,21.58,0,0,0,4.5-3.91,10.72,10.72,0,0,0,2.54-5.58,14.69,14.69,0,0,0-.84-7.14,9.08,9.08,0,0,0-2.15-3.53,6.71,6.71,0,0,0-3.26-1.8,19,19,0,0,0-3.6-.49,15.35,15.35,0,0,0-4,.47c-1.5.36-2.67.67-3.51.92s-1.86.59-3,1l-1.75.64a2.76,2.76,0,0,0-.71,2.48A23.82,23.82,0,0,0,9.39,123.51Z" transform="translate(273.86 0.96)"/><path class="cls-10" d="M82,124.72a68.12,68.12,0,0,1-3.39-18.61A48.93,48.93,0,0,1,80.34,90.4a46.93,46.93,0,0,1,6.14-12.91,53.2,53.2,0,0,1,9.1-10.42,72.22,72.22,0,0,1,11.21-8,86.06,86.06,0,0,1,11.89-5.85,109.27,109.27,0,0,1,11.68-3.83q4.41-1.18,8.73-1.93t9.84-1.2a47,47,0,0,1,10.59.28,53.36,53.36,0,0,1,9.94,2.41,27.45,27.45,0,0,1,9,5.25,28.66,28.66,0,0,1,6.74,8.67q.87,2,4.26,11.5c.13,1.49-1.29,2.58-4.27,3.29-4.27,1-10.49,2.38-18.66,4.22s-14.81,4-18.34,4.38a2.36,2.36,0,0,1-1.71-.78,5.84,5.84,0,0,1-1.19-1.67,14.73,14.73,0,0,0-1.17-2A8.75,8.75,0,0,0,142.53,80a4.88,4.88,0,0,0-2.64-.91,11.62,11.62,0,0,0-4.15.46,14.79,14.79,0,0,0-5.3,2.56,13.42,13.42,0,0,0-3.31,3.64,12.85,12.85,0,0,0-1.54,4.82,35.22,35.22,0,0,0-.35,5.15,34.57,34.57,0,0,0,.66,5.59c.41,2.22.78,4,1.1,5.2s.78,2.89,1.35,4.94c.18.62.42,1.37.72,2.26s.5,1.51.59,1.84l.61,2.14c.42,1.53.8,2.78,1.13,3.77s.83,2.23,1.48,3.74a20.94,20.94,0,0,0,2,3.72,18.83,18.83,0,0,0,2.65,3,9.87,9.87,0,0,0,3.54,2.18,15.42,15.42,0,0,0,4.56.74,19.39,19.39,0,0,0,5.73-.75A47.92,47.92,0,0,0,164,129l-2.28-8.76-3.18.83,0,.14-5.21,1.38c-.39.1-1.07.31-2,.62s-1.78.55-2.4.72l-3.38-2.16L140.23,102c-.33-1.24.18-2.82,1.56-4.72l5.31-1.42q5.52-1.47,13.45-3.35t12.15-2.89l5.91-1.44q4.29-1,6.71-1.53a30.7,30.7,0,0,1,5.53-.58c2.07,0,4,.33,4.35.93,3.37,5.4,4,18.48,5.93,27.72q3.76,18.22,5.65,26.42a5.37,5.37,0,0,0,.23.67,4.72,4.72,0,0,1,.24.74l.37,1.59c-1.17,2.3-6,5.19-14.53,8.78a164.87,164.87,0,0,1-21.74,7.76l-1.83.47c-1.31.35-3.23.95-5.75,1.83s-4.47,1.48-5.75,1.85c-15.38,4.41-33.17,4.56-47.77-2.91C95.88,154.61,86.72,139.53,82,124.72Z" transform="translate(273.86 0.96)"/><path class="cls-10" d="M219.9,142.31l-.61-2.75c-2.69-12.2-5.26-24.42-7.82-36.64s-5.12-24.45-7.81-36.65q-3.33-15-6.64-30,44.55-9.66,89.48-17l3.85,24,.18,1.1.18,1.17a9,9,0,0,1,.1,1.07,2.58,2.58,0,0,1-.1,1.11l-.39.93a2,2,0,0,1-.67.89,5.73,5.73,0,0,1-1.15.6,6.92,6.92,0,0,1-1.63.45l-2.12.35Q266.9,53.87,249,56.66c0,.8.11,2,.19,3.7s.18,3.14.29,4.4a36.72,36.72,0,0,0,.5,3.64q17.79-3.37,35.66-6.33a5.32,5.32,0,0,1,3.1.09,2.34,2.34,0,0,1,1.06,1.78c0,.25.08.64.11,1.19s.08.94.12,1.18q.57,3.52,1.91,10.36c.9,4.57,1.73,8.18,1.92,10.37.08.92-.3,1.55-.94,1.65a1,1,0,0,1-.79-.17c-11.39,2.47-22.76,5-34.21,7.23l-1.91.36,2,10.49c4.33-.82,10.54-2.18,18.68-4s14.25-3,18.35-3.72q4.83-.78,5.89,1.16c.35,2.23.53,3.34.88,5.57s1,5.8,1.8,10.38,1.43,8,1.8,10.38-.37,3.82-2.28,4.12l-11.45,1.82q-7.74,1.23-11.73,2c-9.82,1.74-19.6,3.88-29.27,6.08-9.11,2.07-18.28,4.28-27.43,6.4-1-.76-1.49-1.13-2.49-1.88Q220,142.9,219.9,142.31Z" transform="translate(273.86 0.96)"/><path class="cls-10" d="M418.74,115.66c-1,1.17-3.14,2-6.51,2.46a118.53,118.53,0,0,1-12.51.94c-5,.16-7.62.27-8,.3q-4.89.48-7.07.56l-7.19.75q-1.63-.35-3.19-4.54a118,118,0,0,1-3.5-12.15q-1.95-8-2.09-8.47-1.11-7.26-3.43-9.36c-1.55-1.39-4.15-1.88-7.79-1.45l-3.25.39q2.17,18,4.34,35.94c0,.61-.47,1.16-1.33,1.66a13,13,0,0,1-3.82,1.26c-1.68.33-3.18.59-4.49.79s-3.05.4-5.21.63-3.48.39-3.95.46c-4.14.55-6.2.84-10.33,1.42-5.83.83-10.83,2.17-13.16,2.08a8.39,8.39,0,0,1-2.16-.72q-8.37-54.72-16.73-109.42c-.21-1.37,1.74-2.38,5.87-3Q337,11.33,370.86,7.68c8.47-1.14,20.29.41,27.53,5.43,6.5,4.51,10.08,11.45,10.88,20.54,1,11.9-5.85,22.26-16.19,27.76a21.87,21.87,0,0,1,6.32,2.33,22.51,22.51,0,0,1,4.83,3.57,21.07,21.07,0,0,1,3.55,4.8,41.15,41.15,0,0,1,2.54,5.37,52.7,52.7,0,0,1,1.79,6q.84,3.51,1.27,6.08c.29,1.71.63,3.76,1.05,6.13s.74,4.25,1,5.62l.52,6.5a13.3,13.3,0,0,0,1.61,3.23,13.67,13.67,0,0,1,1.65,3.07C419.39,115,419.13,115.63,418.74,115.66ZM348.56,41.84q.54,4.41.87,6.54a34.43,34.43,0,0,0,1.51,5.5,9.9,9.9,0,0,0,2.85,4.67,26.41,26.41,0,0,0,5.89-1.37,21.09,21.09,0,0,0,5.22-2.75,10.68,10.68,0,0,0,3.7-4.85,14.77,14.77,0,0,0,.8-7.13,9,9,0,0,0-1.27-3.93A6.73,6.73,0,0,0,365.4,36a19.6,19.6,0,0,0-3.35-1.31,14.93,14.93,0,0,0-3.92-.45c-1.52,0-2.72,0-3.59.08s-1.91.15-3.13.29l-1.83.22a2.7,2.7,0,0,0-1.24,2.24A23.7,23.7,0,0,0,348.56,41.84Z" transform="translate(273.86 0.96)"/><path class="cls-10" d="M489.24,101.52q-1.42-49.9-2.83-99.82Q520.07-.24,553.74-1a83.1,83.1,0,0,1,11.69,1,51,51,0,0,1,10.94,3.07,31.85,31.85,0,0,1,9.3,5.58,23.71,23.71,0,0,1,6.05,8.81,29.07,29.07,0,0,1,1.95,12.41q-.39,9.27-4.8,14.84c-2.93,3.72-7.2,7-12.81,9.76,6.41,2,11.22,5.25,14.4,9.76s4.6,10.11,4.31,16.78a31,31,0,0,1-3.38,13.18,28.56,28.56,0,0,1-7.53,9.32,39.67,39.67,0,0,1-10.44,5.8,56.68,56.68,0,0,1-11.71,3.15,71.44,71.44,0,0,1-11.76.78c-2.31,0-5.78-.12-10.43-.25s-8.16-.2-10.51-.18c-12.25.06-24.53.46-36.82,1.09Q489.7,110,489.24,101.52ZM531.1,25.87c0,2.22.07,5.54.22,9.94s.22,7.71.22,9.94a1.66,1.66,0,0,0,1.81,1.63c.62,0,1.93-.25,3.67-.47s3.11-.39,4.12-.53a17.59,17.59,0,0,0,3.68-1,10.1,10.1,0,0,0,3.39-2,10,10,0,0,0,2.17-3.42,14,14,0,0,0,1-5.3c.11-7.51-6.1-12.17-16-11.42a7.63,7.63,0,0,0-3.76,1A2.32,2.32,0,0,0,531.1,25.87Zm1.28,56.53q0,5.49.58,5.49h2.36c1.91,0,3.56-.05,5-.16a22.3,22.3,0,0,0,4.53-.89,10.54,10.54,0,0,0,3.92-2,10.3,10.3,0,0,0,2.56-3.64,14.06,14.06,0,0,0,1.12-5.62,14.73,14.73,0,0,0-.32-3.42,7.21,7.21,0,0,0-1.15-2.69,19,19,0,0,0-1.57-1.95,6.1,6.1,0,0,0-2.22-1.4l-2.38-.92a13.57,13.57,0,0,0-2.8-.58c-1.24-.16-2.14-.26-2.68-.31s-1.5-.13-2.84-.21-2.19-.11-2.54-.12v2.82q-.07.83-.79,5.49a51.58,51.58,0,0,0-.72,7.42C532.39,80.8,532.39,81.33,532.38,82.4Z" transform="translate(273.86 0.96)"/><path class="cls-10" d="M600.8,56.94c.16-3.26.24-4.9.39-8.16a54.6,54.6,0,0,1,5.57-18.7,46,46,0,0,1,10.73-13.87,55.27,55.27,0,0,1,14.66-9,65.61,65.61,0,0,1,17.18-4.68,83.59,83.59,0,0,1,18.27-.34A71.66,71.66,0,0,1,678.23,4a87.5,87.5,0,0,1,11.52,3.77,47.81,47.81,0,0,1,11.33,6.48,34.72,34.72,0,0,1,8.44,9.15,57.33,57.33,0,0,1,8.68,20,62.06,62.06,0,0,1,.6,22.1c-2.16,14-5.83,27.62-15.9,38.7-1.5,1.61-2.24,2.42-3.73,4A33.15,33.15,0,0,1,686,116.71a62.62,62.62,0,0,1-16.13,3.84,87.09,87.09,0,0,1-15.82.06,75.84,75.84,0,0,1-17-3.32,54.7,54.7,0,0,1-13.21-6.14,46.57,46.57,0,0,1-9.73-8.56,48.43,48.43,0,0,1-6.87-10.26,60.62,60.62,0,0,1-4.2-11.51,73.94,73.94,0,0,1-2.08-12A88.53,88.53,0,0,1,600.8,56.94Zm62.3-25.21a11,11,0,0,0-5.73.92A13.36,13.36,0,0,0,653,35.71a17.9,17.9,0,0,0-3.13,5.15,46.68,46.68,0,0,0-2.15,5.93,56.33,56.33,0,0,0-1.37,6.74c-.42,2.72-.69,4.83-.84,6.33s-.3,3.44-.49,5.81-.26,4.43-.24,6.49a41.25,41.25,0,0,0,.6,6.59,25.42,25.42,0,0,0,1.74,6.17,12.67,12.67,0,0,0,3.4,4.6,9.75,9.75,0,0,0,5.31,2.35A14.11,14.11,0,0,0,666.13,89a13.52,13.52,0,0,0,3.29-4.2,35.59,35.59,0,0,0,2.33-5.22,43.26,43.26,0,0,0,1.59-6.33c.47-2.53.83-4.72,1.06-6.56s.48-4.17.76-7c.2-2.06.33-4,.38-5.77s0-3.78-.07-6a22.23,22.23,0,0,0-1-5.87,25.52,25.52,0,0,0-2.14-4.9,10,10,0,0,0-3.69-3.74A13,13,0,0,0,663.1,31.73Z" transform="translate(273.86 0.96)"/><path class="cls-10" d="M720.64,124.11l4.47-33.24c3-23.2,6.87-46.3,10.61-69.39.33-2.41.49-3.61.82-6,.14-1.08.44-1.69.88-1.83q26.64,3.72,53.16,8.17.76.14,2.15,6.09t3.14,15.28q1.75,9.31,2.51,12.85,2.86,14.29,5.52,28.63,2.65-14.15,5.33-28.29.67-3.64,2.71-13.34c1.35-6.47,2.32-11.56,3-15.18.24-1.36,4.49-1.29,12.69.33q3.84.75,10.49,2.25c4.43,1,7.16,1.63,8.18,1.84l5.82,1.24c.82.17,1.2.41,1.14.7-3.69,19.33-7.84,38.58-12,57.83l-10.83,50.34q-.9,1.77-5,.92l-1.85-.39c-2.46-.52-6.1-1.23-10.91-2.1s-8.45-1.53-10.92-2c-8.37-1.63-12.57-2.41-21-3.91-.62-.36-1.47-3.68-2.52-9.94-1.66-9.82-3.51-19.67-5.4-29.45-2.48-12.84-4-20-4.33-21.55q-.71,4.32-2.17,12.88t-2.17,12.87q-.53,3.23-1.43,9.69c-.61,4.31-1.08,7.54-1.43,9.69-.6,3.69-.9,5.54-1.51,9.23-.36,2.24-1.5,3.21-3.4,2.9q-16.47-2.56-33-4.9Z" transform="translate(273.86 0.96)"/><path class="cls-10" d="M834.87,143.93c5.59-10.62,11.32-21.16,17.33-31.49,7.37-12.67,15.25-25.25,23.15-37.64,6.39-10,12.92-20,19.37-30a12.23,12.23,0,0,1,1.64-1.43c5.12,1.25,7.68,1.89,12.8,3.19,3,.76,7.42,1.84,13.27,3.28s10.27,2.59,13.25,3.4c5.1,1.39,7.65,2.1,12.74,3.54.76.21,1.38.4,1.88.57s1.09.4,1.77.69a6.59,6.59,0,0,1,1.58.92,3.05,3.05,0,0,1,.85,1.17,2.2,2.2,0,0,1,.06,1.48q2.28,56.93,2.33,113.86a2.09,2.09,0,0,1-1.62,1.64,9.82,9.82,0,0,1-4-.65c-2.57-.8-3.85-1.19-6.42-2q-2.79-.86-8.34-2.43c-3.69-1.05-6.47-1.83-8.34-2.38-.56-.16-1.7-.45-3.43-.87s-3.17-.81-4.33-1.16-2.43-.8-3.83-1.32a10.57,10.57,0,0,1-3.21-1.75,3,3,0,0,1-1.21-2.07c.53-1.88.79-2.83,1.31-4.71a21.46,21.46,0,0,0-.65-7.27c-.63-2.33-1.62-3.67-2.94-4-9.79-2.66-14.69-4-24.51-6.45-3,5.72-4.54,8.59-7.54,14.32-.81,1-3.59.93-8.34-.23l-5.65-1.38c-2-.48-5.06-1.13-9.1-1.93s-7.08-1.41-9.11-1.87l-2-.44c-.76-.18-2-.42-3.6-.73s-2.91-.57-3.8-.77A24.76,24.76,0,0,1,834.87,143.93Zm60.31-32,1.17,3.9,4.79,1.24a83.48,83.48,0,0,0,10.8,2.14q5,.61,5.41-.88.92-21.91,1.61-43.82c-.9-.24-2.54,1.06-4.91,3.92a56.37,56.37,0,0,0-6.57,10.09C902.52,97.89,900.06,102.57,895.18,112Z" transform="translate(273.86 0.96)"/><path class="cls-10" d="M959.14,177.32l10.08-32c6.89-22.36,14.66-44.45,22.29-66.56l1.83-5.8c.33-1,.73-1.59,1.19-1.65q25.86,8.3,51.47,17.29c.49.18.87,2.31,1.11,6.39s.43,9.28.54,15.61.21,10.69.32,13.1q.43,14.6.66,29.2l10.08-27q1.3-3.48,5-12.68c2.43-6.14,4.26-11,5.53-14.45.47-1.29,4.69-.48,12.58,2.55q3.69,1.41,10.06,4.06c4.25,1.77,6.86,2.87,7.84,3.26l5.6,2.24c.78.32,1.12.61,1,.89-7,18.42-14.33,36.67-21.69,54.93l-19.29,47.74c-.8,1.06-2.49,1.07-5.09,0l-1.77-.71c-2.37-.94-5.87-2.28-10.51-4s-8.16-3-10.54-3.9c-8.06-3.07-12.1-4.57-20.2-7.52-.56-.46-.83-3.89-.83-10.24,0-10-.16-20-.39-30-.29-13.09-.6-20.46-.65-22q-1.44,4.14-4.34,12.32t-4.34,12.31c-.71,2.06-1.74,5.16-3.06,9.31s-2.35,7.24-3.07,9.3l-3,8.84q-1.12,3.21-3.88,2.27-15.93-5.4-31.92-10.56Z" transform="translate(273.86 0.96)"/><path class="cls-10" d="M1074.13,217.45l.9-2.2q2.43-5.9,5.94-13.84c2.34-5.29,3.71-7.91,3.79-7.83a27.22,27.22,0,0,0,3-1.56c2-1.11,5.64-3.1,11-5.94s11-5.72,16.79-8.65q15.6-7.69,31.28-15.11c-4.32-1.94-10.71-4.71-19.21-8.21s-15.71-5.89-19.3-7.93a1.93,1.93,0,0,1-1-1.65,6.66,6.66,0,0,1,.59-2.36c1.37-3.29,2-4.94,3.41-8.23.19-.45.77-2.14,1.75-5.05s1.79-5.15,2.43-6.71q2.27-5.48,3.73-4.88,36.48,15.14,72.38,31.57c6.12,2.91,9.17,4.38,15.26,7.36,2.77,1.36,4.36,2.43,4.76,3.18s0,2.36-1.24,4.85c-.31.62-.74,1.38-1.31,2.29s-.88,1.42-1,1.55l-.2.4a72.57,72.57,0,0,1-5.85,10,61.07,61.07,0,0,1-5.4,6.68,26.74,26.74,0,0,1-6.19,4.61,55.14,55.14,0,0,1-6.33,3.14q-2.58,1-7.92,3t-8.87,3.53q-15.46,6.77-30.82,13.78,19.77,9.14,39.33,18.71c.5.25.73.79.71,1.64a11.63,11.63,0,0,1-.92,3.56c-.59,1.53-1.13,2.82-1.63,3.87s-1.22,2.55-2.19,4.5l-3,6.12c-.2.4-.55,1.21-1,2.42s-.89,2.14-1.2,2.76c-1,2-2,3.17-3,3.39s-2.47-.14-4.42-1.1l-1.59-.78c-13-6.32-26.07-12.28-39.27-18s-26.37-11.23-39.59-16.74a7.31,7.31,0,0,1-3.07-2A13.56,13.56,0,0,1,1074.13,217.45Z" transform="translate(273.86 0.96)"/><path class="cls-10" d="M1163.34,259.14c8.05-8.93,16.22-17.73,24.61-26.26,10.3-10.48,21.09-20.73,31.84-30.78,8.7-8.12,17.54-16.21,26.3-24.32a14.14,14.14,0,0,1,2-1c4.77,2.52,7.16,3.79,11.91,6.35,2.78,1.5,6.91,3.67,12.36,6.56s9.55,5.12,12.31,6.68c4.72,2.65,7.07,4,11.78,6.68.7.41,1.27.75,1.73,1s1,.67,1.58,1.13a7,7,0,0,1,1.35,1.29,3,3,0,0,1,.56,1.36,2.12,2.12,0,0,1-.28,1.46q-11.25,56-24.69,111.47a2.08,2.08,0,0,1-2,1.18,10.31,10.31,0,0,1-3.78-1.66l-5.9-3.56q-2.57-1.54-7.69-4.51c-3.41-2-6-3.44-7.71-4.45-.52-.3-1.58-.88-3.19-1.73s-3-1.59-4-2.24-2.23-1.39-3.48-2.26a11.3,11.3,0,0,1-2.78-2.52,3.09,3.09,0,0,1-.7-2.32l2.42-4.26a20.74,20.74,0,0,0,1.07-7.23q-.11-3.64-2-4.68c-9-5.09-13.6-7.59-22.73-12.5-4.36,4.79-6.53,7.2-10.86,12-1,.79-3.77,0-8.2-2.33l-5.26-2.77c-1.89-1-4.73-2.38-8.54-4.17s-6.66-3.15-8.56-4.11l-1.85-.94c-.71-.35-1.83-.89-3.38-1.61s-2.74-1.28-3.58-1.7A25.72,25.72,0,0,1,1163.34,259.14Zm67.24-15.89c.09,1.64.14,2.46.23,4.09l4.44,2.42a87.58,87.58,0,0,0,10.19,4.83c3.21,1.24,5.06,1.42,5.57.52q6.1-21.09,12-42.24c-.83-.46-2.77.4-5.79,2.57a55,55,0,0,0-8.9,8.15C1241.18,231.43,1237.64,235.36,1230.58,243.25Z" transform="translate(273.86 0.96)"/></svg>